HIERARCHY
ROOT Hips
{
    OFFSET 0.0 0.0 0.0
    CHANNELS 6 Xposition Yposition Zposition Zrotation Xrotation Yrotation
    JOINT LeftHipJoint
    {
        OFFSET 0.1 0.0 0.0
        CHANNELS 3 Zrotation Xrotation Yrotation
        JOINT LeftUpLeg
        {
            OFFSET 124.94992506288618 0.0 0.0
            CHANNELS 3 Zrotation Xrotation Yrotation
            JOINT LeftLeg
            {
                OFFSET 0.0 0.0 -408.62860473802584
                CHANNELS 3 Zrotation Xrotation Yrotation
                JOINT LeftFoot
                {
                    OFFSET 0.0 0.0 -376.31551124501533
                    CHANNELS 3 Zrotation Xrotation Yrotation
                    End Site
                    {
                        OFFSET 0.0 -0.1 0.0
                    }
                }
            }
        }
    }
    JOINT LowerBack
    {
        OFFSET 0.0 0.0 0.1
        CHANNELS 3 Zrotation Xrotation Yrotation
        JOINT Spine
        {
            OFFSET 0.0 0.0 216.29010490104798
            CHANNELS 3 Zrotation Xrotation Yrotation
            JOINT Spine1
            {
                OFFSET 0.0 0.0 252.92598777463812
                CHANNELS 3 Zrotation Xrotation Yrotation
                JOINT LeftShoulder
                {
                    OFFSET 0.1 0.0 0.0
                    CHANNELS 3 Zrotation Xrotation Yrotation
                    JOINT LeftArm
                    {
                        OFFSET 143.12066963857728 0.0 0.0
                        CHANNELS 3 Zrotation Xrotation Yrotation
                        JOINT LeftForeArm
                        {
                            OFFSET 255.72812547611113 0.0 0.0
                            CHANNELS 3 Zrotation Xrotation Yrotation
                            JOINT LeftHand
                            {
                                OFFSET 227.57215504512726 0.0 0.0
                                CHANNELS 3 Zrotation Xrotation Yrotation
                                End Site
                                {
                                    OFFSET 0.1 0.0 0.0
                                }
                            }
                        }
                    }
                }
                JOINT Neck
                {
                    OFFSET 0.0 0.0 0.1
                    CHANNELS 3 Zrotation Xrotation Yrotation
                    JOINT Neck1
                    {
                        OFFSET 0.0 0.0 106.27224356769827
                        CHANNELS 3 Zrotation Xrotation Yrotation
                        End Site
                        {
                            OFFSET 0.0 0.0 117.85794587708591
                        }
                    }
                }
                JOINT RightShoulder
                {
                    OFFSET -0.1 0.0 0.0
                    CHANNELS 3 Zrotation Xrotation Yrotation
                    JOINT RightArm
                    {
                        OFFSET -143.12066963857728 0.0 0.0
                        CHANNELS 3 Zrotation Xrotation Yrotation
                        JOINT RightForeArm
                        {
                            OFFSET -255.72812547611113 0.0 0.0
                            CHANNELS 3 Zrotation Xrotation Yrotation
                            JOINT RightHand
                            {
                                OFFSET -227.57215504512726 0.0 0.0
                                CHANNELS 3 Zrotation Xrotation Yrotation
                                End Site
                                {
                                    OFFSET -0.1 0.0 0.0
                                }
                            }
                        }
                    }
                }
            }
        }
    }
    JOINT RightHipJoint
    {
        OFFSET -0.1 0.0 0.0
        CHANNELS 3 Zrotation Xrotation Yrotation
        JOINT RightUpLeg
        {
            OFFSET -124.94992506288618 0.0 0.0
            CHANNELS 3 Zrotation Xrotation Yrotation
            JOINT RightLeg
            {
                OFFSET 0.0 0.0 -408.62860473802584
                CHANNELS 3 Zrotation Xrotation Yrotation
                JOINT RightFoot
                {
                    OFFSET 0.0 0.0 -376.31551124501533
                    CHANNELS 3 Zrotation Xrotation Yrotation
                    End Site
                    {
                        OFFSET 0.0 -0.1 0.0
                    }
                }
            }
        }
    }
}
MOTION
Frames: 7
Frame Time: 0.03333333333333333
0.0 0.0 807.165676021574 23.432163798258205 2.6332030752322337 3.020901580425518 0.0 0.0 -2.981770013872047e-16 0.034816661872688726 -19.069898236684566 3.0354775463091324 1.6533240462190084 29.392199920458882 -2.1771465082643933 -3.1805546814635168e-15 0.0 0.0 0.0 0.0 -2.981770013872047e-16 -0.002021374203958259 1.2118251587499096 -1.1106798662108937 -1.6277281771962573 4.997350969499773e-16 -1.9170570513137458e-16 -3.1805546814635168e-15 2.758691436281349e-33 -9.93923337957349e-17 -29.683350416109896 10.226897074949328 80.30195995905832 -22.87621792950225 -6.125932574660371e-16 -4.991447656277274e-15 0.0 0.0 -2.8264694923162112e-15 -3.1805546814635168e-15 2.758691436281349e-33 -9.93923337957349e-17 1.389755437512039 -3.8116024615820625 -0.45334632867411007 -3.1805546814635168e-15 2.758691436281349e-33 -9.93923337957349e-17 14.727813345464035 15.070972670308246 -75.09675100618394 52.70278359805968 -7.164928572461908e-15 1.419725327646183e-14 0.0 0.0 -3.975693351829396e-16 0.0 0.0 -2.981770013872047e-16 0.025688451191840708 -15.969811506992867 -1.3388875943189837 -0.7113885060402917 26.34685370323624 0.8664281706516148 0.0 0.0 0.0
0.0 0.0 807.165676021574 23.377696207899675 2.923493433744407 3.0919588896460524 -8.620910738379216e-35 -9.939233379573489e-17 -9.939233379573489e-17 0.042945015612301476 -19.267041384583724 2.930598353197103 1.5663751446173106 29.1707940490672 -2.044867615418186 0.0 0.0 3.975693351829396e-16 -8.620910738379216e-35 -9.939233379573489e-17 -9.939233379573489e-17 -0.0022555411578324414 1.0959284548379848 -1.113626625807654 -1.5473507183405837 5.869051310588469e-16 7.037353398918052e-16 0.0 0.0 0.0 -29.647669470436682 10.07463449482527 80.03779422230727 -23.090782067134274 1.6839193089773859e-15 7.648021296821898e-15 0.0 0.0 7.454425034680117e-17 0.0 0.0 0.0 1.2764491664173565 -3.9252027210572993 -0.6134108327383216 0.0 0.0 0.0 13.850049926072979 14.613182725593418 -74.21157649970328 54.66686906117236 1.651157077254939e-15 1.7048037854188273e-14 0.0 0.0 2.782985346280577e-15 -8.620910738379216e-35 -9.939233379573489e-17 -9.939233379573489e-17 0.03276707505465369 -16.254127934631533 -1.4406441481270245 -0.7784817728546937 26.495466483067602 0.9559972979065885 0.0 0.0 -3.975693351829396e-16
0.0 0.0 807.165676021574 23.271525730103043 3.20802388364993 3.138209960826406 0.0 0.0 -2.981770013872047e-16 0.047941134952931584 -19.348534174669886 2.8455913298156728 1.472592381954008 28.554704880184318 -1.863252751284318 0.0 0.0 -7.951386703658792e-16 0.0 0.0 -2.981770013872047e-16 -0.0024482646074138344 1.0645928701646101 -1.0813586424583954 -1.4620538838144213 6.064502254302179e-16 -7.8746538070693405e-16 0.0 0.0 0.0 -29.645045275878278 9.960599187324467 79.8227607187825 -23.067119592474835 -6.216471664865351e-15 1.4556193233130922e-14 0.0 0.0 6.212020862233431e-17 0.0 0.0 0.0 1.0337960818822072 -4.035709471974282 -0.7474777923575877 0.0 0.0 0.0 12.76814391978329 13.862970747965546 -73.09829277958471 57.1813863397527 -1.2692932550188277e-14 3.295487925425056e-15 0.0 0.0 3.0811623476677818e-15 0.0 0.0 -2.981770013872047e-16 0.037615131035330145 -16.561199417359862 -1.5356007120947408 -0.8298175688402946 26.403917338950045 1.2101056420162886 -5.517382872562698e-33 -1.5902773407317584e-15 -3.975693351829396e-16
0.0 0.0 807.165676021574 23.234122472480152 3.649274776442134 3.2142223883034613 0.0 0.0 -9.93923337957349e-17 0.04954639343910094 -19.65391273806375 2.684842965624748 1.355304754526091 28.063927793494976 -1.5686052291931094 0.0 -1.9878466759146977e-16 0.0 0.0 0.0 -9.93923337957349e-17 -0.002294801197432141 0.9805126144136621 -1.0340373973063246 -1.4740531501628018 -2.9303832378326846e-16 -4.0137194873130084e-16 0.0 0.0 0.0 -29.351800208512806 9.36350037527542 79.18042421371688 -23.39598870501735 -3.869202351816946e-15 1.8686965620580454e-14 0.0 0.0 1.1927080055488192e-15 0.0 0.0 0.0 0.6931060872323482 -4.291253945111672 -0.9851677142765164 0.0 0.0 0.0 11.94152550593663 12.964047681524386 -71.99080519080198 59.57441982971424 1.184080335653169e-14 7.881239592065308e-15 0.0 0.0 -4.969616689786745e-17 0.0 0.0 -9.93923337957349e-17 0.039766607401991096 -17.12844354294564 -1.6302970987610037 -0.8779252748552815 26.39433241230038 1.3783871843509257 0.0 0.0 -7.951386703658792e-16
0.0 0.0 807.165676021574 23.23731655450855 3.9693759684093908 3.276390711947307 -2.586273221513765e-34 -9.93923337957349e-17 -2.981770013872047e-16 0.05386546912011534 -19.830233644579174 2.651814407834031 1.2839919756069476 27.21169982093123 -1.4728295252119235 1.3793457181406746e-33 -1.9878466759146977e-16 7.951386703658791e-16 -2.586273221513765e-34 -9.93923337957349e-17 -2.981770013872047e-16 -0.002251548515925136 0.8891596815046373 -1.0192941328632057 -1.392952693594515 -2.9573864357418977e-16 -2.023944735476109e-16 0.0 0.0 1.987846675914698e-16 -28.728711455048686 9.361737728554985 78.97516784124892 -23.494737307992484 4.509018426021086e-15 1.7498104248510465e-15 1.5902773407317588e-15 -1.5517639329082588e-32 -1.1181637552020177e-15 0.0 0.0 1.987846675914698e-16 0.36095991879515826 -4.459246964274154 -1.1771464862653422 0.0 0.0 1.987846675914698e-16 11.00112783851459 12.317528113054 -70.95311563609853 62.08120109778381 -1.6400382181220977e-15 -2.725106002503093e-15 0.0 0.0 -2.584200678689108e-15 -2.586273221513765e-34 -9.93923337957349e-17 -2.981770013872047e-16 0.0445281111430128 -17.58718979030891 -1.6901067186484902 -0.9091268919067437 26.283984458270652 1.5736385211833672 0.0 0.0 -3.975693351829396e-16
0.0 0.0 807.165676021574 23.21838128354936 4.19935170187288 3.388843161150195 0.0 0.0 9.93923337957349e-17 0.039050279714133364 -19.857613926460093 2.523288437220061 1.2012474092850884 26.476851473127027 -1.2944322281036824 0.0 0.0 -7.951386703658792e-16 0.0 0.0 9.93923337957349e-17 -0.0014492642958613216 0.7960280417265448 -0.9532715232234212 -1.393415807169501 1.4847319569063909e-15 5.150534151732364e-16 0.0 0.0 -1.987846675914698e-16 -27.687241999179857 9.208030720299206 78.68719657932938 -23.445547746267476 0.0 0.0 0.0 0.0 -1.6896696745274934e-15 0.0 0.0 -1.987846675914698e-16 0.08845054639425692 -4.5344898950937225 -1.4900857012120727 0.0 0.0 -1.987846675914698e-16 10.163324466923353 11.723829511049576 -70.06822384351979 64.28752683320911 -1.0462650825672997e-14 -4.694678132010498e-15 -6.361109362927035e-15 8.827812596100317e-32 -1.5902773407317588e-15 0.0 0.0 9.93923337957349e-17 0.032198243247541614 -17.802110172520372 -1.7639537729248485 -0.9233325316786979 26.253282564906144 1.6573388285681598 0.0 0.0 0.0
0.0 0.0 807.165676021574 23.133071197061625 4.426956224963826 3.4995009563067647 0.0 0.0 -3.975693351829396e-16 0.036273453898153556 -20.010040896868308 2.3694978602616383 1.1000464709333673 25.895396240494616 -1.1061202314797605 0.0 0.0 3.975693351829396e-16 0.0 0.0 -3.975693351829396e-16 -0.0013399814233461065 0.7950955480265375 -0.9025871425649747 -1.2969411948654215 8.813703645938933e-17 9.949845730250282e-16 0.0 0.0 1.987846675914698e-16 -26.825607439275746 9.007734421784038 78.3184631074002 -23.40357751039648 -6.712708099657791e-15 1.0456920397074804e-15 7.172597734331508e-32 1.5902773407317584e-15 -5.168401357378215e-15 0.0 0.0 1.987846675914698e-16 -0.2374950464622435 -4.662177669918368 -1.7774774125810375 0.0 0.0 1.987846675914698e-16 9.266746269096034 10.328997108510094 -69.02731930817251 66.418203633961 -1.0548128513629827e-14 -4.499338831771046e-15 0.0 0.0 -1.5902773407317584e-15 0.0 0.0 -3.975693351829396e-16 0.030518228960280815 -18.097475679152147 -1.8305301108769167 -0.9419581875564328 26.005704906257137 1.7330475368566476 0.0 0.0 -3.975693351829396e-16
